<svg data-v-fde0c5aa="" xmlns="http://www.w3.org/2000/svg" viewBox="0 0 300 300" class="font"><!----><defs data-v-fde0c5aa=""><linearGradient data-v-fde0c5aa="" gradientTransform="rotate(25)" id="3cf6e2ce-6163-455f-a68a-c45398e86692" x1="0%" y1="0%" x2="100%" y2="0%"><stop data-v-fde0c5aa="" offset="0%" stop-color="#0067F5" stop-opacity="1"></stop><stop data-v-fde0c5aa="" offset="100%" stop-color="#0DC5E7" stop-opacity="1"></stop></linearGradient></defs><rect data-v-fde0c5aa="" fill="url(#3cf6e2ce-6163-455f-a68a-c45398e86692)" x="0" y="0" width="300px" height="300px" class="logo-background-square"></rect><defs data-v-fde0c5aa=""><!----></defs><g data-v-fde0c5aa="" id="20868c7f-a14f-42c2-9ca7-a8a92a41fd75" fill="#ffffff" transform="matrix(4.522096466594623,0,0,4.522096466594623,33.62384413304284,96.63926298796562)"><path d="M10.40 13.80L10.37 5.60C10.37 5.40 10.29 5.29 10.14 5.29C10.07 5.29 9.98 5.31 9.93 5.35C8.64 7.77 7.34 10.28 6.03 12.70C4.65 10.28 3.23 7.84 1.85 5.42C1.81 5.33 1.74 5.29 1.64 5.29C1.53 5.29 1.47 5.35 1.41 5.40C1.47 5.63 1.50 6.06 1.50 6.62L1.53 14.83C1.53 15.02 1.60 15.13 1.74 15.13C1.86 15.13 1.93 15.08 1.99 15.02C1.93 14.80 1.90 14.36 1.90 13.80L1.88 6.31C3.19 8.57 4.49 10.86 5.81 13.12C5.95 13.22 6.10 13.22 6.24 13.12L9.97 6.15L10.00 14.83C10.00 15.02 10.08 15.13 10.23 15.13C10.36 15.13 10.43 15.08 10.49 15.02C10.43 14.80 10.40 14.36 10.40 13.80ZM17.88 13.41C17.63 14.39 16.66 14.78 15.69 14.78C14.39 14.78 13.16 14.07 13.09 11.75C13.54 11.82 14.04 11.89 14.71 11.89C16.86 11.89 18.03 11.19 18.03 9.77C18.03 8.54 17.15 7.85 15.76 7.85C13.72 7.85 12.64 9.31 12.64 11.62C12.64 14 13.78 15.19 15.65 15.19C16.72 15.19 17.64 14.81 17.99 14.01C18.16 13.62 18.05 13.48 17.88 13.41ZM15.74 8.23C16.63 8.23 17.60 8.58 17.60 9.77C17.60 10.95 16.65 11.54 14.88 11.54C14.36 11.54 13.62 11.48 13.09 11.40C13.15 9.24 14.22 8.23 15.74 8.23ZM24.85 5.22C23.76 5.22 23.46 5.38 23.42 5.40C23.49 5.64 23.52 6.50 23.52 6.62L23.52 14.83C23.53 15.02 23.62 15.13 23.79 15.13C23.91 15.13 23.98 15.08 24.04 15.02C23.97 14.78 23.94 13.93 23.94 13.80L23.94 11.07L24.37 11.07C27.27 11.07 28.64 10.15 28.64 8.04C28.64 6.17 27.57 5.22 24.85 5.22ZM24.53 10.72L23.94 10.72L23.94 5.64C24.08 5.60 24.37 5.59 24.72 5.59C27.15 5.59 28.20 6.29 28.20 8.05C28.20 9.93 26.99 10.72 24.53 10.72ZM36.57 14.39C36.46 14.63 36.22 14.77 36.04 14.77C35.70 14.77 35.50 14.55 35.50 14.03L35.50 10.85C35.50 8.90 34.66 7.85 32.86 7.85C31.40 7.85 30.46 8.39 30.46 9.49C30.46 10.02 30.77 10.65 31.19 10.65C31.28 10.65 31.46 10.61 31.57 10.43C31.09 10.32 30.87 9.83 30.87 9.46C30.87 8.47 31.95 8.25 32.77 8.25C34.40 8.25 35.08 9.11 35.08 10.85L35.08 11.21C34.22 11.12 33.18 11.19 32.37 11.40C30.88 11.80 30.17 12.60 30.17 13.59C30.17 14.49 30.70 15.19 31.82 15.19C33.07 15.19 34.37 14.32 35.08 12.78L35.08 14C35.08 14.70 35.36 15.16 36.02 15.16C36.33 15.16 36.69 14.99 36.69 14.69C36.69 14.60 36.67 14.50 36.57 14.39ZM31.91 14.81C30.95 14.81 30.62 14.21 30.62 13.57C30.62 12.70 31.26 12.11 32.40 11.77C33.10 11.56 34.33 11.44 35.08 11.51C35.04 13.12 33.33 14.81 31.91 14.81ZM43.02 8.16C43.02 7.97 42.94 7.85 42.78 7.85C42.66 7.85 42.59 7.91 42.53 7.97C42.62 8.29 42.62 8.76 42.62 11.28C42.62 14.03 41.23 14.77 40.08 14.77C38.93 14.77 38.43 14.04 38.43 12.14L38.42 8.16C38.42 7.97 38.33 7.85 38.18 7.85C38.05 7.85 37.98 7.91 37.93 7.97C37.98 8.19 38.01 8.58 38.01 9.18L38.02 12.12C38.04 14.38 38.77 15.16 40.07 15.16C41.30 15.16 42.24 14.43 42.62 13.24L42.62 14.15C42.62 16.83 41.87 17.99 40.03 17.99C39.33 17.99 38.33 17.75 38.33 16.74C38.33 16.62 38.35 16.28 38.61 16.14C38.56 16.06 38.46 16.02 38.36 16.02C38.08 16.02 37.93 16.41 37.93 16.84C37.93 17.95 39.05 18.38 40.05 18.38C41.78 18.38 43.05 17.40 43.05 14.38ZM47.45 15.19C49.56 15.19 50.06 14.21 50.06 13.44C50.06 12.15 48.73 11.79 47.59 11.26C46.59 10.79 45.68 10.44 45.68 9.38C45.68 8.51 46.55 8.23 47.47 8.23C48.66 8.23 49.39 8.58 49.39 9.37C49.39 9.48 49.38 9.60 49.32 9.73C49.45 9.77 49.56 9.77 49.64 9.72C49.78 9.63 49.83 9.49 49.83 9.28C49.83 8.40 49.04 7.84 47.50 7.84C46.28 7.84 45.23 8.27 45.23 9.42C45.23 10.71 46.27 11.10 47.36 11.63C48.45 12.17 49.62 12.42 49.62 13.47C49.62 14.32 48.71 14.80 47.40 14.80C46.19 14.80 45.33 14.34 45.33 13.29C45.33 13.09 45.36 12.98 45.42 12.84C45.05 12.80 44.90 12.99 44.90 13.43C44.90 14.36 45.58 15.19 47.45 15.19Z"></path></g><!----><!----></svg>